<svg id="facebook" xmlns="http://www.w3.org/2000/svg" viewBox="0 0 46 48"><defs><style>.cls-1{fill:#fff;}.cls-2{fill:#235b9e;}</style></defs><g id="Layer_6" data-name="Layer 6"><path d="M177.56,157.25a3.17,3.17,0,0,1,4.36,0l1.89,1.83a7,7,0,0,0,5.18,1.68l2.6-.37a3.16,3.16,0,0,1,3.52,2.56l.46,2.58a7,7,0,0,0,3.2,4.41l2.32,1.23a3.15,3.15,0,0,1,1.34,4.14l-1.15,2.35a7,7,0,0,0,0,5.44l1.15,2.36a3.15,3.15,0,0,1-1.34,4.14l-2.32,1.23a7,7,0,0,0-3.2,4.41l-.46,2.58a3.16,3.16,0,0,1-3.52,2.56L189,200a7,7,0,0,0-5.18,1.68l-1.89,1.82a3.17,3.17,0,0,1-4.36,0l-1.88-1.82A7,7,0,0,0,170.5,200l-2.6.37a3.17,3.17,0,0,1-3.53-2.56l-.45-2.58a7,7,0,0,0-3.2-4.41l-2.32-1.23a3.16,3.16,0,0,1-1.35-4.14l1.16-2.36a7,7,0,0,0,0-5.44l-1.16-2.35a3.16,3.16,0,0,1,1.35-4.14l2.32-1.23a7.05,7.05,0,0,0,3.2-4.41l.45-2.58a3.17,3.17,0,0,1,3.53-2.56l2.6.37a7,7,0,0,0,5.18-1.68Z" transform="translate(-156.74 -156.38)"/><path class="cls-1" d="M175.74,195.38h6v-15h4.46l.54-6H182V172a1.27,1.27,0,0,1,1.32-1.44h3.37V165.4l-4.64,0c-5.14,0-6.31,3.84-6.31,6.29v2.71h-3v6h3Z" transform="translate(-156.74 -156.38)"/></g><g id="Layer_7" data-name="Layer 7"><path class="cls-2" d="M177.56,157.25a3.17,3.17,0,0,1,4.36,0l1.89,1.83a7,7,0,0,0,5.18,1.68l2.6-.37a3.16,3.16,0,0,1,3.52,2.56l.46,2.58a7,7,0,0,0,3.2,4.41l2.32,1.23a3.15,3.15,0,0,1,1.34,4.14l-1.15,2.35a7,7,0,0,0,0,5.44l1.15,2.36a3.15,3.15,0,0,1-1.34,4.14l-2.32,1.23a7,7,0,0,0-3.2,4.41l-.46,2.58a3.16,3.16,0,0,1-3.52,2.56L189,200a7,7,0,0,0-5.18,1.68l-1.89,1.82a3.17,3.17,0,0,1-4.36,0l-1.88-1.82A7,7,0,0,0,170.5,200l-2.6.37a3.17,3.17,0,0,1-3.53-2.56l-.45-2.58a7,7,0,0,0-3.2-4.41l-2.32-1.23a3.16,3.16,0,0,1-1.35-4.14l1.16-2.36a7,7,0,0,0,0-5.44l-1.16-2.35a3.16,3.16,0,0,1,1.35-4.14l2.32-1.23a7.05,7.05,0,0,0,3.2-4.41l.45-2.58a3.17,3.17,0,0,1,3.53-2.56l2.6.37a7,7,0,0,0,5.18-1.68Z" transform="translate(-156.74 -156.38)"/><path class="cls-1" d="M175.74,195.38h6v-15h4.46l.54-6H182V172a1.27,1.27,0,0,1,1.32-1.44h3.37V165.4l-4.64,0c-5.14,0-6.31,3.84-6.31,6.29v2.71h-3v6h3Z" transform="translate(-156.74 -156.38)"/></g></svg>