<svg id="Layer_3" data-name="Layer 3" xmlns="http://www.w3.org/2000/svg" viewBox="0 0 46 48"><defs><style>.cls-1{fill:#2d80a6;}.cls-2{fill:#fff;}</style></defs><path class="cls-1" d="M178.59,156.87a3.17,3.17,0,0,1,4.36,0l1.89,1.82a7,7,0,0,0,5.18,1.68l2.6-.36a3.16,3.16,0,0,1,3.52,2.56l.45,2.58a7,7,0,0,0,3.21,4.4l2.32,1.23a3.16,3.16,0,0,1,1.34,4.14l-1.15,2.36a6.94,6.94,0,0,0,0,5.44l1.15,2.36a3.16,3.16,0,0,1-1.34,4.14l-2.32,1.23a7,7,0,0,0-3.21,4.4l-.45,2.58a3.15,3.15,0,0,1-3.52,2.56l-2.6-.36a7,7,0,0,0-5.18,1.68L183,203.13a3.17,3.17,0,0,1-4.36,0l-1.88-1.82a7,7,0,0,0-5.18-1.68l-2.6.36a3.16,3.16,0,0,1-3.53-2.56l-.45-2.58a7,7,0,0,0-3.2-4.4l-2.32-1.23a3.17,3.17,0,0,1-1.35-4.14l1.16-2.36a7,7,0,0,0,0-5.44l-1.16-2.36a3.17,3.17,0,0,1,1.35-4.14l2.32-1.23a7,7,0,0,0,3.2-4.4l.45-2.58a3.17,3.17,0,0,1,3.53-2.56l2.6.36a7,7,0,0,0,5.18-1.68Z" transform="translate(-157.77 -156)"/><path class="cls-2" d="M190,165h-18.4a5.8,5.8,0,0,0-5.8,5.8v18.4a5.8,5.8,0,0,0,5.8,5.8H190a5.8,5.8,0,0,0,5.8-5.8V170.8A5.8,5.8,0,0,0,190,165Zm1.67,3.46h.66v5.08l-5.07,0,0-5.09Zm-15.15,8.46a5.27,5.27,0,1,1-1,3.08A5.27,5.27,0,0,1,176.49,176.92Zm16.36,12.28a2.88,2.88,0,0,1-2.88,2.88h-18.4a2.88,2.88,0,0,1-2.88-2.88V176.92h4.48a8.09,8.09,0,0,0-.6,3.08,8.2,8.2,0,1,0,16.4,0,8.09,8.09,0,0,0-.6-3.08h4.48Z" transform="translate(-157.77 -156)"/></svg>