<svg id="twitter" xmlns="http://www.w3.org/2000/svg" viewBox="0 0 46 48"><defs><style>.cls-1{fill:#fff;}.cls-2{fill:#00abe3;}</style></defs><g id="Layer_9" data-name="Layer 9"><path d="M177.57,157.25a3.15,3.15,0,0,1,4.35,0l1.89,1.83a7,7,0,0,0,5.18,1.68l2.6-.37a3.16,3.16,0,0,1,3.52,2.56l.46,2.58a7.05,7.05,0,0,0,3.2,4.41l2.32,1.23a3.15,3.15,0,0,1,1.34,4.14l-1.15,2.35a7,7,0,0,0,0,5.44l1.15,2.36a3.15,3.15,0,0,1-1.34,4.14l-2.32,1.23a7,7,0,0,0-3.2,4.41l-.46,2.58a3.16,3.16,0,0,1-3.52,2.56L189,200a7,7,0,0,0-5.18,1.68l-1.89,1.83a3.17,3.17,0,0,1-4.35,0l-1.89-1.83A7,7,0,0,0,170.5,200l-2.6.37a3.17,3.17,0,0,1-3.53-2.56l-.45-2.58a7,7,0,0,0-3.2-4.41l-2.32-1.23a3.16,3.16,0,0,1-1.35-4.14l1.16-2.36a7,7,0,0,0,0-5.44l-1.16-2.35a3.16,3.16,0,0,1,1.35-4.14l2.32-1.23a7.05,7.05,0,0,0,3.2-4.41l.45-2.58a3.17,3.17,0,0,1,3.53-2.56l2.6.37a7,7,0,0,0,5.18-1.68Z" transform="translate(-156.74 -156.38)"/><path class="cls-1" d="M193.92,168.83A12.54,12.54,0,0,1,190,170.3a6.18,6.18,0,0,0-4.5-1.92,6.11,6.11,0,0,0-6.15,6.06,6.21,6.21,0,0,0,.16,1.38,17.55,17.55,0,0,1-12.69-6.33,6,6,0,0,0,1.91,8.09,6.23,6.23,0,0,1-2.79-.75v.07a6.08,6.08,0,0,0,4.94,5.94,6.11,6.11,0,0,1-2.78.11,6.13,6.13,0,0,0,5.75,4.2,12.46,12.46,0,0,1-7.65,2.6,11.84,11.84,0,0,1-1.47-.09,17.64,17.64,0,0,0,9.44,2.72,17.25,17.25,0,0,0,17.51-17.23c0-.27,0-.53,0-.79a12.38,12.38,0,0,0,3.08-3.13,12.68,12.68,0,0,1-3.54,1A6.12,6.12,0,0,0,193.92,168.83Z" transform="translate(-156.74 -156.38)"/></g><g id="Layer_10" data-name="Layer 10"><path class="cls-2" d="M177.57,157.25a3.15,3.15,0,0,1,4.35,0l1.89,1.83a7,7,0,0,0,5.18,1.68l2.6-.37a3.16,3.16,0,0,1,3.52,2.56l.46,2.58a7.05,7.05,0,0,0,3.2,4.41l2.32,1.23a3.15,3.15,0,0,1,1.34,4.14l-1.15,2.35a7,7,0,0,0,0,5.44l1.15,2.36a3.15,3.15,0,0,1-1.34,4.14l-2.32,1.23a7,7,0,0,0-3.2,4.41l-.46,2.58a3.16,3.16,0,0,1-3.52,2.56L189,200a7,7,0,0,0-5.18,1.68l-1.89,1.83a3.17,3.17,0,0,1-4.35,0l-1.89-1.83A7,7,0,0,0,170.5,200l-2.6.37a3.17,3.17,0,0,1-3.53-2.56l-.45-2.58a7,7,0,0,0-3.2-4.41l-2.32-1.23a3.16,3.16,0,0,1-1.35-4.14l1.16-2.36a7,7,0,0,0,0-5.44l-1.16-2.35a3.16,3.16,0,0,1,1.35-4.14l2.32-1.23a7.05,7.05,0,0,0,3.2-4.41l.45-2.58a3.17,3.17,0,0,1,3.53-2.56l2.6.37a7,7,0,0,0,5.18-1.68Z" transform="translate(-156.74 -156.38)"/><path class="cls-1" d="M193.92,168.83A12.54,12.54,0,0,1,190,170.3a6.18,6.18,0,0,0-4.5-1.92,6.11,6.11,0,0,0-6.15,6.06,6.21,6.21,0,0,0,.16,1.38,17.55,17.55,0,0,1-12.69-6.33,6,6,0,0,0,1.91,8.09,6.23,6.23,0,0,1-2.79-.75v.07a6.08,6.08,0,0,0,4.94,5.94,6.11,6.11,0,0,1-2.78.11,6.13,6.13,0,0,0,5.75,4.2,12.46,12.46,0,0,1-7.65,2.6,11.84,11.84,0,0,1-1.47-.09,17.64,17.64,0,0,0,9.44,2.72,17.25,17.25,0,0,0,17.51-17.23c0-.27,0-.53,0-.79a12.38,12.38,0,0,0,3.08-3.13,12.68,12.68,0,0,1-3.54,1A6.12,6.12,0,0,0,193.92,168.83Z" transform="translate(-156.74 -156.38)"/></g></svg>