<svg xmlns="http://www.w3.org/2000/svg" viewBox="0 0 46.16 48"><defs><style>.cls-1{fill:#ff312e;}.cls-2{fill:#fff;}</style></defs><g id="youtube"><g id="Layer_13" data-name="Layer 13"><path class="cls-1" d="M177.27,157.28a3.17,3.17,0,0,1,4.36-.05l1.91,1.8a7,7,0,0,0,5.2,1.61l2.59-.4a3.17,3.17,0,0,1,3.56,2.52l.49,2.58a7,7,0,0,0,3.26,4.36l2.33,1.2a3.16,3.16,0,0,1,1.4,4.12l-1.13,2.37a7,7,0,0,0,.07,5.44l1.18,2.35a3.15,3.15,0,0,1-1.29,4.15l-2.3,1.26a7.06,7.06,0,0,0-3.15,4.44l-.42,2.59a3.16,3.16,0,0,1-3.49,2.61l-2.6-.34a7,7,0,0,0-5.16,1.75l-1.87,1.85a3.15,3.15,0,0,1-4.35,0l-1.91-1.8a7,7,0,0,0-5.2-1.61l-2.6.4A3.16,3.16,0,0,1,164.6,198l-.49-2.58a7,7,0,0,0-3.26-4.36l-2.33-1.2a3.16,3.16,0,0,1-1.4-4.12l1.12-2.37a7,7,0,0,0-.07-5.45L157,175.59a3.15,3.15,0,0,1,1.3-4.15l2.3-1.26a7,7,0,0,0,3.14-4.45l.43-2.58a3.16,3.16,0,0,1,3.49-2.61l2.6.34a7,7,0,0,0,5.16-1.75Z" transform="translate(-156.66 -156.39)"/><g id="Lozenge"><path class="cls-2" d="M194.76,181.38l0-2.38a47.81,47.81,0,0,0-.37-5.06,7,7,0,0,0-1.23-3.09,4.15,4.15,0,0,0-3-1.28c-4.2-.26-10.5-.18-10.5-.18h0s-6.3.07-10.49.44a4.24,4.24,0,0,0-3,1.36,7,7,0,0,0-1.15,3.13,49.14,49.14,0,0,0-.24,5.06l0,2.37a49.08,49.08,0,0,0,.36,5.06,7,7,0,0,0,1.23,3.09,5,5,0,0,0,3.33,1.3c2.4.21,10.2.18,10.2.18s6.3-.09,10.5-.45a4.27,4.27,0,0,0,3-1.37,7,7,0,0,0,1.15-3.12A49.14,49.14,0,0,0,194.76,181.38Zm-18.06,3.1-.11-8.79,8.16,4.31Z" transform="translate(-156.66 -156.39)"/></g></g></g></svg>